# xmcd CD database file
#
# Track frame offsets:
#	150
#	12416
#	33928
#	60125
#	86893
#	115955
#	138664
#	163947
#	183614
#	205654
#	228144
#	248365
#	277630
#	291311
#	319558
#
# Disc length: 4539 seconds
#
# Revision: 0
# Processed by: cddbd v1.5.2PL0 Copyright (c) Steve Scherf et al.
# Submitted via: CDex 1.70beta2
#
DISCID=c511b90f
DTITLE=Various Artist - Jazziz Spring 2012 - Disc 1 - Ladies First
DYEAR=2012
DGENRE=Jazz
TTITLE0=Maeve Gilchrist - Take Off Your Coat
TTITLE1=Nicole Henry - Since I Fell For You
TTITLE2=Cindy Bradley - Massive Transit
TTITLE3=Tineke Postma - Tell It Like It Is
TTITLE4=Esperanza Spalding - Radio Song
TTITLE5=Sheryl Bailey - Moblin
TTITLE6=Candy Dulfer - No End
TTITLE7=Saskia Laroo/Warren Byrd - Collaboration
TTITLE8=Basia - An Olive Tree
TTITLE9=Jo-Yu Chen Trio - Follow Me
TTITLE10=Rene Marie - Black Lace Freudian Slip
TTITLE11=Sunnie Paxson - Seabound
TTITLE12=Carmen Cuesta - Triste
TTITLE13=Jenny Scheinman - A Ride With Polly Jean
TTITLE14=Sara Serpa - Sem Razao
EXTD=YEAR: 2012
EXTT0=
EXTT1=
EXTT2=
EXTT3=
EXTT4=
EXTT5=
EXTT6=
EXTT7=
EXTT8=
EXTT9=
EXTT10=
EXTT11=
EXTT12=
EXTT13=
EXTT14=
PLAYORDER=
